<?xml version="1.0" encoding="UTF-8" standalone="no"?>
<svg width="10px" height="38px" viewBox="0 0 10 38" version="1.1" xmlns="http://www.w3.org/2000/svg" xmlns:xlink="http://www.w3.org/1999/xlink">
    <!-- Generator: Sketch 49.2 (51160) - http://www.bohemiancoding.com/sketch -->
    <title>Artboard 3</title>
    <desc>Created with Sketch.</desc>
    <defs></defs>
    <g id="Artboard-3" stroke="none" stroke-width="1" fill="none" fill-rule="evenodd">
        <rect id="Rectangle-34" fill="#2B7DBC" x="1" y="0" width="1" height="1"></rect>
        <rect id="Rectangle-34-Copy-5" fill="#2B7DBC" x="1" y="10" width="1" height="1"></rect>
        <rect id="Rectangle-34-Copy-10" fill="#2B7DBC" x="1" y="20" width="1" height="1"></rect>
        <rect id="Rectangle-34-Copy-15" fill="#2B7DBC" x="1" y="30" width="1" height="1"></rect>
        <rect id="Rectangle-34-Copy" fill="#2B7DBC" x="1" y="2" width="1" height="1"></rect>
        <rect id="Rectangle-34-Copy-6" fill="#2B7DBC" x="1" y="12" width="1" height="1"></rect>
        <rect id="Rectangle-34-Copy-11" fill="#2B7DBC" x="1" y="22" width="1" height="1"></rect>
        <rect id="Rectangle-34-Copy-16" fill="#2B7DBC" x="1" y="32" width="1" height="1"></rect>
        <rect id="Rectangle-34-Copy-2" fill="#2B7DBC" x="1" y="4" width="1" height="1"></rect>
        <rect id="Rectangle-34-Copy-7" fill="#2B7DBC" x="1" y="14" width="1" height="1"></rect>
        <rect id="Rectangle-34-Copy-12" fill="#2B7DBC" x="1" y="24" width="1" height="1"></rect>
        <rect id="Rectangle-34-Copy-3" fill="#2B7DBC" x="1" y="6" width="1" height="1"></rect>
        <rect id="Rectangle-34-Copy-8" fill="#2B7DBC" x="1" y="16" width="1" height="1"></rect>
        <rect id="Rectangle-34-Copy-17" fill="#2B7DBC" x="3" y="17" width="1" height="1"></rect>
        <rect id="Rectangle-34-Copy-18" fill="#2B7DBC" x="5" y="17" width="1" height="1"></rect>
        <rect id="Rectangle-34-Copy-19" fill="#2B7DBC" x="7" y="17" width="1" height="1"></rect>
        <rect id="Rectangle-34-Copy-20" fill="#2B7DBC" x="9" y="17" width="1" height="1"></rect>
        <rect id="Rectangle-34-Copy-13" fill="#2B7DBC" x="1" y="26" width="1" height="1"></rect>
        <rect id="Rectangle-34-Copy-4" fill="#2B7DBC" x="1" y="8" width="1" height="1"></rect>
        <rect id="Rectangle-34-Copy-9" fill="#2B7DBC" x="1" y="18" width="1" height="1"></rect>
        <rect id="Rectangle-34-Copy-14" fill="#2B7DBC" x="1" y="28" width="1" height="1"></rect>
        <rect id="Rectangle-34-Copy-21" fill="#2B7DBC" x="1" y="36" width="1" height="1"></rect>
        <rect id="Rectangle-34-Copy-17" fill="#2B7DBC" x="1" y="34" width="1" height="1"></rect>
    </g>
</svg>