<?xml version="1.0" standalone="no"?><!DOCTYPE svg PUBLIC "-//W3C//DTD SVG 1.1//EN" "http://www.w3.org/Graphics/SVG/1.1/DTD/svg11.dtd"><svg t="1522835975160" class="icon" style="" viewBox="0 0 1024 1024" version="1.1" xmlns="http://www.w3.org/2000/svg" p-id="1905" xmlns:xlink="http://www.w3.org/1999/xlink" width="18" height="18"><defs><style type="text/css"></style></defs><path d="M248.281 389.122q0 62.982 33.399 114.036t86.839 76.819l1.909 125.010q-51.531-14.314-95.427-44.374t-75.864-71.571-50.099-92.565-18.131-107.356q0-67.753 25.765-127.873t70.616-104.97 104.493-70.616 128.35-25.765q67.753 0 127.873 25.765t104.493 70.616 70.139 104.97 25.765 127.873q0 41.988-9.543 77.296l-107.833-70.616v-6.68q0-43.897-16.7-82.545t-45.328-67.276-66.799-45.328-82.068-16.7-82.545 16.7-67.276 45.328-45.328 67.276-16.7 82.545zM911.502 658.227q-32.445-0.954-67.753 1.909-30.537 1.909-69.185 7.157t-78.727 15.745l104.016 171.77q13.359 25.765 4.771 54.394t-35.308 41.988q-25.765 14.314-54.394 5.248t-41.988-34.831l-86.839-193.718q-35.308 20.994-63.459 44.374t-48.191 43.419q-23.857 23.857-41.988 47.714l-2.863-577.336z" p-id="1906" fill="#6FB3E0"></path></svg>