<?xml version="1.0" standalone="no"?><!DOCTYPE svg PUBLIC "-//W3C//DTD SVG 1.1//EN" "http://www.w3.org/Graphics/SVG/1.1/DTD/svg11.dtd"><svg t="1547186936420" class="icon" style="" viewBox="0 0 1024 1024" version="1.1" xmlns="http://www.w3.org/2000/svg" p-id="4199" xmlns:xlink="http://www.w3.org/1999/xlink" width="20" height="20"><defs><style type="text/css"></style></defs><path d="M782.4 910.9c54 0 98.8-41.4 98.8-93.8s-44.8-93.8-98.8-93.8H241.2c-20.3 0-35.7-14.3-35.7-30.7 0-16.3 15.4-30.7 35.7-30.7h112.1c17.4 0 31.5-14.1 31.5-31.5-0.4-17.8-14.5-32-31.5-31.6H241.2c-54 0-98.8 41.4-98.8 93.8s44.8 93.8 98.8 93.8h541.1c20.3 0 35.8 14.3 35.8 30.7 0 16.3-15.4 30.7-35.8 30.7H330.9c-17-0.4-31.1 13.7-31.5 31.5 0 17.4 14.1 31.6 31.5 31.6h451.5zM541.5 112.1c-114.3-0.3-206.9 92.3-207.2 206.6 0 84.8 114.6 243.5 173.6 319.3 16.5 18.6 44.9 20.3 63.5 3.9l3.9-3.9c58.9-75.8 173.6-234.1 173.6-319.3-0.4-114.3-93.1-206.7-207.4-206.6z m0 323.3c-30.8 0-60.3-12.2-82.1-34-21.8-21.8-34-51.3-34-82.1 0-30.8 12.2-60.3 34-82 21.8-21.7 51.3-33.9 82.1-33.8 63.2 1.1 113.9 52.7 113.9 116 0 63.2-50.7 114.8-113.9 115.9z m0 0" p-id="4200" fill="#1890ff"></path></svg>