<?xml version="1.0" standalone="no"?><!DOCTYPE svg PUBLIC "-//W3C//DTD SVG 1.1//EN" "http://www.w3.org/Graphics/SVG/1.1/DTD/svg11.dtd"><svg t="1547025022194" class="icon" style="" viewBox="0 0 1024 1024" version="1.1" xmlns="http://www.w3.org/2000/svg" p-id="1417" xmlns:xlink="http://www.w3.org/1999/xlink" width="16" height="16"><defs><style type="text/css"></style></defs><path d="M199.111111 512c0-173.511111 139.377778-312.888889 312.888889-312.888889 142.222222 0 264.533333 96.711111 301.511111 227.555556h88.177778C861.866667 247.466667 702.577778 113.777778 512 113.777778 338.488889 113.777778 190.577778 224.711111 136.533333 381.155556l-28.444444-48.355556-73.955556 42.666667L113.777778 512h85.333333zM910.222222 512h-85.333333c0 173.511111-139.377778 312.888889-312.888889 312.888889-142.222222 0-264.533333-96.711111-301.511111-227.555556H122.311111c39.822222 179.2 199.111111 312.888889 389.688889 312.888889 173.511111 0 321.422222-110.933333 375.466667-267.377778l28.444444 48.355556 73.955556-42.666667L910.222222 512z" fill="#1890ff" p-id="1418"></path></svg>