<?xml version="1.0" standalone="no"?><!DOCTYPE svg PUBLIC "-//W3C//DTD SVG 1.1//EN" "http://www.w3.org/Graphics/SVG/1.1/DTD/svg11.dtd"><svg t="1525247175707" class="icon" style="" viewBox="0 0 1024 1024" version="1.1" xmlns="http://www.w3.org/2000/svg" p-id="3488" xmlns:xlink="http://www.w3.org/1999/xlink" width="20" height="20"><defs><style type="text/css"></style></defs><path d="M273.81 449.746c26.866 0 44.772-8.955 62.681-26.862 17.908-17.908 26.867-40.294 26.867-62.682 0-22.388-8.959-44.772-26.867-62.682-17.907-17.913-35.815-26.866-62.681-26.866-26.862 0-44.772 8.955-62.682 26.866-17.908 17.908-26.862 35.815-26.862 62.682 0 26.862 8.954 44.772 26.862 62.682 17.908 17.907 40.293 26.862 62.682 26.862v0zM273.81 449.746z" p-id="3489" fill="#DD5A43"></path><path d="M837.95 539.294l-192.526-192.526-237.296 237.298-76.111-76.114-147.75 147.75v89.543h653.683v-205.953zM837.95 539.294z" p-id="3490" fill="#DD5A43"></path><path d="M914.060 167.677h-805.909c-22.388 0-44.772 22.387-44.772 44.772v595.477c0 22.387 22.387 44.772 44.772 44.772h805.908c22.388 0 44.772-22.388 44.772-44.772v-595.475c0.001-26.866-22.386-44.775-44.771-44.775v0zM914.060 803.454h-805.909v-591.002h805.908v591.002h0.001zM914.060 803.454z" p-id="3491" fill="#DD5A43"></path></svg>