<?xml version="1.0" standalone="no"?><!DOCTYPE svg PUBLIC "-//W3C//DTD SVG 1.1//EN" "http://www.w3.org/Graphics/SVG/1.1/DTD/svg11.dtd"><svg t="1522735329365" class="icon" style="" viewBox="0 0 1024 1024" version="1.1" xmlns="http://www.w3.org/2000/svg" p-id="9529" xmlns:xlink="http://www.w3.org/1999/xlink" width="12" height="12"><defs><style type="text/css"></style></defs><path d="M871.815 420.025q18.24 0 35.040 7.2t28.8 19.2 19.2 28.8 7.2 35.040q0 19.2-7.2 35.52t-19.2 28.32-28.8 19.2-35.040 7.2h-269.76v269.76q0 19.2-7.2 35.52t-19.2 28.32-28.8 19.2-35.040 7.2q-19.2 0-35.52-7.2t-28.32-19.2-19.2-28.32-7.2-35.52v-269.76h-269.76q-19.2 0-35.52-7.2t-28.32-19.2-19.2-28.32-7.2-35.52q0-18.24 7.2-35.040t19.2-28.8 28.32-19.2 35.52-7.2h269.76v-269.76q0-18.24 7.2-35.040t19.2-28.8 28.32-19.2 35.52-7.2q37.44 0 63.84 26.4t26.4 63.84v269.76h269.76z" p-id="9530" fill="#ffffff"></path></svg>