<?xml version="1.0" standalone="no"?><!DOCTYPE svg PUBLIC "-//W3C//DTD SVG 1.1//EN" "http://www.w3.org/Graphics/SVG/1.1/DTD/svg11.dtd"><svg t="1522730958468" class="icon" style="" viewBox="0 0 1024 1024" version="1.1" xmlns="http://www.w3.org/2000/svg" p-id="7359" xmlns:xlink="http://www.w3.org/1999/xlink" width="16" height="16"><defs><style type="text/css"></style></defs><path d="M249.6 838.4c19.2 0 38.4-6.4 57.6-19.2l6.4 0L134.4 640l0 6.4c-12.8 19.2-19.2 38.4-19.2 57.6l-64 198.4L249.6 838.4 249.6 838.4 249.6 838.4 249.6 838.4zM889.6 121.6 832 64c-32-32-83.2-32-115.2 0l-57.6 57.6L832 294.4l57.6-57.6C921.6 204.8 921.6 153.6 889.6 121.6L889.6 121.6 889.6 121.6 889.6 121.6zM774.4 352 601.6 179.2 198.4 582.4l172.8 172.8L774.4 352 774.4 352 774.4 352 774.4 352z" p-id="7360" fill="#69AA46"></path><path d="M0 960l1024 0 0 64L0 1024 0 960 0 960z" p-id="7361" fill="#69AA46"></path></svg>