<?xml version="1.0" standalone="no"?><!DOCTYPE svg PUBLIC "-//W3C//DTD SVG 1.1//EN" "http://www.w3.org/Graphics/SVG/1.1/DTD/svg11.dtd"><svg t="1580430393925" class="icon" viewBox="0 0 1024 1024" version="1.1" xmlns="http://www.w3.org/2000/svg" p-id="1926" width="25" height="25" xmlns:xlink="http://www.w3.org/1999/xlink"><defs><style type="text/css"></style></defs><path d="M775.3 590.1c-83.9 0-157.4 56.7-178.7 138-139.2-51.7-248.8-161.3-300.8-300.3 98.6-25.6 157.9-126.7 132-225.3-21.2-81.1-94.2-137.8-178.1-138-100.3 0.2-181.9 80-184.5 180.3-0.4 1.6-0.6 3.5-0.6 5.1 0 82.5 14.9 164.6 44.3 244.2 29.2 78.6 71.4 151.6 125 216 55.9 67.2 137.6 128.7 229.7 173.7 100.7 49.2 207.1 75.3 308.1 75.6 1.2 0.2 2.4 0.2 3.5 0.2 101.9 0 184.5-82.7 184.5-184.7 0.1-102-82.8-184.8-184.4-184.8z" fill="#ffffff" p-id="1927"></path></svg>