<?xml version="1.0" standalone="no"?><!DOCTYPE svg PUBLIC "-//W3C//DTD SVG 1.1//EN" "http://www.w3.org/Graphics/SVG/1.1/DTD/svg11.dtd"><svg t="1582599880785" class="icon" viewBox="0 0 1024 1024" version="1.1" xmlns="http://www.w3.org/2000/svg" p-id="5516" xmlns:xlink="http://www.w3.org/1999/xlink" width="25" height="25"><defs><style type="text/css"></style></defs><path d="M294.4 463.36V179.2c0-15.36-10.24-25.6-25.6-25.6s-25.6 10.24-25.6 25.6v284.16c-58.88 12.8-102.4 64-102.4 125.44s43.52 112.64 102.4 125.44V844.8c0 15.36 10.24 25.6 25.6 25.6s25.6-10.24 25.6-25.6v-130.56c58.88-12.8 102.4-64 102.4-125.44s-43.52-112.64-102.4-125.44z m-25.6 202.24c-43.52 0-76.8-33.28-76.8-76.8s33.28-76.8 76.8-76.8 76.8 33.28 76.8 76.8-33.28 76.8-76.8 76.8z m281.6-458.24V179.2c0-15.36-10.24-25.6-25.6-25.6s-25.6 10.24-25.6 25.6v28.16c-58.88 12.8-102.4 64-102.4 125.44s43.52 112.64 102.4 125.44V844.8c0 15.36 10.24 25.6 25.6 25.6s25.6-10.24 25.6-25.6V458.24c58.88-12.8 102.4-64 102.4-125.44s-43.52-112.64-102.4-125.44z m-25.6 202.24c-43.52 0-76.8-33.28-76.8-76.8s33.28-76.8 76.8-76.8 76.8 33.28 76.8 76.8-33.28 76.8-76.8 76.8z m281.6 156.16V179.2c0-15.36-10.24-25.6-25.6-25.6s-25.6 10.24-25.6 25.6v386.56c-58.88 12.8-102.4 64-102.4 125.44s43.52 112.64 102.4 125.44V844.8c0 15.36 10.24 25.6 25.6 25.6s25.6-10.24 25.6-25.6v-28.16c58.88-12.8 102.4-64 102.4-125.44s-43.52-112.64-102.4-125.44z m-25.6 202.24c-43.52 0-76.8-33.28-76.8-76.8s33.28-76.8 76.8-76.8 76.8 33.28 76.8 76.8-33.28 76.8-76.8 76.8z" p-id="5517" fill="#ffffff"></path></svg>