<?xml version="1.0" standalone="no"?><!DOCTYPE svg PUBLIC "-//W3C//DTD SVG 1.1//EN" "http://www.w3.org/Graphics/SVG/1.1/DTD/svg11.dtd"><svg t="1580676953403" class="icon" viewBox="0 0 1024 1024" version="1.1" xmlns="http://www.w3.org/2000/svg" p-id="3733" xmlns:xlink="http://www.w3.org/1999/xlink" width="25" height="25"><defs><style type="text/css"></style></defs><path d="M192 320c-54.4 0-96 41.6-96 92.8V608c0 54.4 41.6 96 96 96h83.2l182.4 188.8c22.4 22.4 44.8 35.2 67.2 35.2 6.4 0 12.8 0 19.2-3.2 19.2-9.6 32-28.8 32-51.2v-224L233.6 320H192z m758.4 489.6l-57.6-54.4C934.4 681.6 960 598.4 960 512c0-115.2-41.6-227.2-118.4-316.8-12.8-12.8-32-16-44.8-3.2-12.8 12.8-16 32-3.2 44.8 64 76.8 102.4 176 102.4 275.2 0 70.4-19.2 137.6-51.2 195.2L752 617.6c9.6-35.2 16-70.4 16-105.6 0-73.6-22.4-144-67.2-204.8-9.6-16-28.8-19.2-44.8-6.4s-19.2 28.8-6.4 44.8c35.2 48 54.4 108.8 54.4 166.4 0 19.2-3.2 38.4-6.4 54.4L576 451.2V153.6c0-25.6-12.8-44.8-32-51.2-25.6-9.6-57.6 0-86.4 32L352 240 214.4 105.6c-12.8-12.8-32-12.8-44.8 0-12.8 12.8-12.8 32 0 44.8l736 704c6.4 6.4 12.8 9.6 22.4 9.6 9.6 0 16-3.2 22.4-9.6 12.8-12.8 12.8-32 0-44.8z" p-id="3734" fill="#ffffff"></path></svg>