<?xml version="1.0" standalone="no"?><!DOCTYPE svg PUBLIC "-//W3C//DTD SVG 1.1//EN" "http://www.w3.org/Graphics/SVG/1.1/DTD/svg11.dtd"><svg t="1580676965046" class="icon" viewBox="0 0 1024 1024" version="1.1" xmlns="http://www.w3.org/2000/svg" p-id="3925" xmlns:xlink="http://www.w3.org/1999/xlink" width="25" height="25"><defs><style type="text/css"></style></defs><path d="M526.432 924.064c-20.96 0-44.16-12.576-68.96-37.344L274.752 704H192c-52.928 0-96-43.072-96-96V416c0-52.928 43.072-96 96-96h82.752l182.624-182.624c24.576-24.576 47.744-37.024 68.864-37.024C549.184 100.352 576 116 576 160v704c0 44.352-26.72 60.064-49.568 60.064zM687.584 730.368a31.898 31.898 0 0 1-18.656-6.016c-14.336-10.304-17.632-30.304-7.328-44.672l12.672-17.344C707.392 617.44 736 578.624 736 512c0-69.024-25.344-102.528-57.44-144.928-5.664-7.456-11.328-15.008-16.928-22.784-10.304-14.336-7.04-34.336 7.328-44.672 14.368-10.368 34.336-7.04 44.672 7.328 5.248 7.328 10.656 14.464 15.968 21.504C764.224 374.208 800 421.504 800 512c0 87.648-39.392 141.12-74.144 188.32l-12.224 16.736c-6.272 8.704-16.064 13.312-26.048 13.312z" p-id="3926" fill="#ffffff"></path><path d="M796.448 839.008a31.906 31.906 0 0 1-21.088-7.936c-13.28-11.648-14.624-31.872-2.976-45.152C836.608 712.672 896 628.864 896 512s-59.392-200.704-123.616-273.888c-11.648-13.312-10.304-33.504 2.976-45.184 13.216-11.648 33.44-10.336 45.152 2.944C889.472 274.56 960 373.6 960 512s-70.528 237.472-139.488 316.096c-6.368 7.232-15.2 10.912-24.064 10.912z" p-id="3927" fill="#ffffff"></path></svg>